<svg width="680" height="440" viewBox="0 0 680 440" xmlns="http://www.w3.org/2000/svg">
  <rect width="680" height="440" fill="#0a0f0a"/>

  <rect x="0" y="0" width="680" height="4" fill="#00FFB3" opacity="0.06">
    <animateTransform attributeName="transform" type="translate" from="0 -4" to="0 444" dur="6s" repeatCount="indefinite"/>
  </rect>

  <rect x="0" y="390" width="680" height="50" fill="#060c06"/>
  <rect x="0" y="388" width="680" height="2" fill="#00FFB3" opacity="0.25"/>

  <rect x="30"  y="340" width="18" height="50" fill="#0d1a0d"/>
  <rect x="55"  y="318" width="14" height="72" fill="#0d1a0d"/>
  <rect x="76"  y="350" width="22" height="40" fill="#0d1a0d"/>
  <rect x="105" y="328" width="16" height="62" fill="#0d1a0d"/>
  <rect x="128" y="308" width="20" height="82" fill="#0d1a0d"/>
  <rect x="532" y="345" width="18" height="45" fill="#0d1a0d"/>
  <rect x="556" y="323" width="14" height="67" fill="#0d1a0d"/>
  <rect x="577" y="336" width="22" height="54" fill="#0d1a0d"/>
  <rect x="606" y="316" width="16" height="74" fill="#0d1a0d"/>
  <rect x="630" y="304" width="20" height="86" fill="#0d1a0d"/>

  <!-- FLOOR 1 -->
  <rect x="210" y="310" width="260" height="80" rx="2" fill="#002918" stroke="#00FFB3" stroke-width="1.2"/>
  <line x1="210" y1="332" x2="470" y2="332" stroke="#00FFB3" stroke-width="0.3" opacity="0.3"/>
  <line x1="210" y1="354" x2="470" y2="354" stroke="#00FFB3" stroke-width="0.3" opacity="0.3"/>
  <rect x="228" y="318" width="20" height="12" rx="1" fill="#00FFB3"><animate attributeName="opacity" values="0.2;0.8;0.2" dur="2.1s" repeatCount="indefinite"/></rect>
  <rect x="256" y="318" width="20" height="12" rx="1" fill="#00FFB3"><animate attributeName="opacity" values="0.8;0.2;0.8" dur="2.1s" repeatCount="indefinite"/></rect>
  <rect x="284" y="318" width="20" height="12" rx="1" fill="#FFD700"><animate attributeName="opacity" values="0.2;0.6;0.2" dur="3.3s" repeatCount="indefinite"/></rect>
  <rect x="312" y="318" width="20" height="12" rx="1" fill="#00FFB3"><animate attributeName="opacity" values="0.5;0.9;0.5" dur="1.8s" repeatCount="indefinite"/></rect>
  <rect x="340" y="318" width="20" height="12" rx="1" fill="#00FFB3"><animate attributeName="opacity" values="0.9;0.2;0.9" dur="2.4s" repeatCount="indefinite"/></rect>
  <rect x="368" y="318" width="20" height="12" rx="1" fill="#FFD700"><animate attributeName="opacity" values="0.3;0.7;0.3" dur="2.9s" repeatCount="indefinite"/></rect>
  <rect x="396" y="318" width="20" height="12" rx="1" fill="#00FFB3"><animate attributeName="opacity" values="0.7;0.3;0.7" dur="2.2s" repeatCount="indefinite"/></rect>
  <rect x="424" y="318" width="20" height="12" rx="1" fill="#00FFB3"><animate attributeName="opacity" values="0.3;0.8;0.3" dur="1.9s" repeatCount="indefinite"/></rect>
  <text x="340" y="356" font-family="monospace" font-size="12" fill="#00FFB3" text-anchor="middle" font-weight="bold">CLEAN CODE</text>
  <text x="340" y="374" font-family="monospace" font-size="9" fill="#44aa77" text-anchor="middle">Readability · Naming · Single Responsibility</text>

  <!-- FLOOR 2 -->
  <rect x="225" y="225" width="230" height="82" rx="2" fill="#001a11" stroke="#00cc88" stroke-width="1.2"/>
  <line x1="225" y1="248" x2="455" y2="248" stroke="#00cc88" stroke-width="0.3" opacity="0.3"/>
  <line x1="225" y1="270" x2="455" y2="270" stroke="#00cc88" stroke-width="0.3" opacity="0.3"/>
  <rect x="242" y="233" width="18" height="11" rx="1" fill="#00cc88"><animate attributeName="opacity" values="0.8;0.2;0.8" dur="2.6s" repeatCount="indefinite"/></rect>
  <rect x="266" y="233" width="18" height="11" rx="1" fill="#00cc88"><animate attributeName="opacity" values="0.2;0.7;0.2" dur="1.7s" repeatCount="indefinite"/></rect>
  <rect x="290" y="233" width="18" height="11" rx="1" fill="#FFD700"><animate attributeName="opacity" values="0.5;0.9;0.5" dur="3.1s" repeatCount="indefinite"/></rect>
  <rect x="314" y="233" width="18" height="11" rx="1" fill="#00cc88"><animate attributeName="opacity" values="0.3;0.8;0.3" dur="2.0s" repeatCount="indefinite"/></rect>
  <rect x="338" y="233" width="18" height="11" rx="1" fill="#00cc88"><animate attributeName="opacity" values="0.8;0.3;0.8" dur="2.3s" repeatCount="indefinite"/></rect>
  <rect x="362" y="233" width="18" height="11" rx="1" fill="#FFD700"><animate attributeName="opacity" values="0.2;0.6;0.2" dur="2.8s" repeatCount="indefinite"/></rect>
  <rect x="386" y="233" width="18" height="11" rx="1" fill="#00cc88"><animate attributeName="opacity" values="0.6;0.2;0.6" dur="1.6s" repeatCount="indefinite"/></rect>
  <rect x="410" y="233" width="18" height="11" rx="1" fill="#00cc88"><animate attributeName="opacity" values="0.2;0.8;0.2" dur="2.5s" repeatCount="indefinite"/></rect>
  <text x="340" y="272" font-family="monospace" font-size="12" fill="#00cc88" text-anchor="middle" font-weight="bold">SOLID PRINCIPLES</text>
  <text x="340" y="290" font-family="monospace" font-size="9" fill="#33886a" text-anchor="middle">Open/Closed · Dependency Inv. · Interface Seg.</text>

  <!-- FLOOR 3 -->
  <rect x="245" y="148" width="190" height="74" rx="2" fill="#001208" stroke="#69F0AE" stroke-width="1.2"/>
  <line x1="245" y1="170" x2="435" y2="170" stroke="#69F0AE" stroke-width="0.3" opacity="0.3"/>
  <rect x="260" y="156" width="16" height="10" rx="1" fill="#69F0AE"><animate attributeName="opacity" values="0.3;0.9;0.3" dur="2.2s" repeatCount="indefinite"/></rect>
  <rect x="282" y="156" width="16" height="10" rx="1" fill="#69F0AE"><animate attributeName="opacity" values="0.9;0.3;0.9" dur="1.8s" repeatCount="indefinite"/></rect>
  <rect x="304" y="156" width="16" height="10" rx="1" fill="#FFD700"><animate attributeName="opacity" values="0.2;0.7;0.2" dur="3.0s" repeatCount="indefinite"/></rect>
  <rect x="326" y="156" width="16" height="10" rx="1" fill="#69F0AE"><animate attributeName="opacity" values="0.7;0.2;0.7" dur="2.4s" repeatCount="indefinite"/></rect>
  <rect x="348" y="156" width="16" height="10" rx="1" fill="#69F0AE"><animate attributeName="opacity" values="0.4;0.9;0.4" dur="2.1s" repeatCount="indefinite"/></rect>
  <rect x="370" y="156" width="16" height="10" rx="1" fill="#FFD700"><animate attributeName="opacity" values="0.8;0.2;0.8" dur="2.7s" repeatCount="indefinite"/></rect>
  <rect x="392" y="156" width="16" height="10" rx="1" fill="#69F0AE"><animate attributeName="opacity" values="0.2;0.8;0.2" dur="1.9s" repeatCount="indefinite"/></rect>
  <rect x="414" y="156" width="16" height="10" rx="1" fill="#69F0AE"><animate attributeName="opacity" values="0.6;0.2;0.6" dur="2.3s" repeatCount="indefinite"/></rect>
  <text x="340" y="188" font-family="monospace" font-size="11" fill="#69F0AE" text-anchor="middle" font-weight="bold">SCALABLE ARCHITECTURE</text>
  <text x="340" y="204" font-family="monospace" font-size="9" fill="#2a7a4a" text-anchor="middle">Layers · Separation of Concerns · Extensibility</text>

  <!-- spire -->
  <line x1="340" y1="148" x2="340" y2="78" stroke="#00FFB3" stroke-width="1.5"/>
  <circle cx="340" cy="74" r="4" fill="#00FFB3">
    <animate attributeName="r" values="4;7;4" dur="1.8s" repeatCount="indefinite"/>
    <animate attributeName="opacity" values="1;0.3;1" dur="1.8s" repeatCount="indefinite"/>
  </circle>

  <!-- LEFT TAGS -->
  <rect x="36" y="0" width="142" height="26" rx="4" fill="#001a11" stroke="#00FFB3" stroke-width="0.8">
    <animate attributeName="y" values="298;292;298" dur="3.0s" repeatCount="indefinite"/>
  </rect>
  <text x="107" y="0" font-family="monospace" font-size="9" fill="#00FFB3" text-anchor="middle">
    maintainability
    <animate attributeName="y" values="315;309;315" dur="3.0s" repeatCount="indefinite"/>
  </text>
  <line x1="178" y1="311" x2="210" y2="342" stroke="#00FFB3" stroke-width="0.5" stroke-dasharray="3,2" opacity="0.4"/>

  <rect x="24" y="0" width="160" height="26" rx="4" fill="#001208" stroke="#00cc88" stroke-width="0.8">
    <animate attributeName="y" values="218;212;218" dur="3.4s" repeatCount="indefinite"/>
  </rect>
  <text x="104" y="0" font-family="monospace" font-size="9" fill="#00cc88" text-anchor="middle">
    separation of concerns
    <animate attributeName="y" values="235;229;235" dur="3.4s" repeatCount="indefinite"/>
  </text>
  <line x1="184" y1="231" x2="225" y2="258" stroke="#00cc88" stroke-width="0.5" stroke-dasharray="3,2" opacity="0.4"/>

  <rect x="40" y="0" width="136" height="26" rx="4" fill="#000d08" stroke="#69F0AE" stroke-width="0.8">
    <animate attributeName="y" values="138;132;138" dur="2.8s" repeatCount="indefinite"/>
  </rect>
  <text x="108" y="0" font-family="monospace" font-size="9" fill="#69F0AE" text-anchor="middle">
    extensible design
    <animate attributeName="y" values="155;149;155" dur="2.8s" repeatCount="indefinite"/>
  </text>
  <line x1="176" y1="151" x2="245" y2="174" stroke="#69F0AE" stroke-width="0.5" stroke-dasharray="3,2" opacity="0.4"/>

  <!-- RIGHT TAGS -->
  <rect x="502" y="0" width="138" height="26" rx="4" fill="#001a11" stroke="#00FFB3" stroke-width="0.8">
    <animate attributeName="y" values="298;292;298" dur="3.2s" repeatCount="indefinite"/>
  </rect>
  <text x="571" y="0" font-family="monospace" font-size="9" fill="#00FFB3" text-anchor="middle">
    testability
    <animate attributeName="y" values="315;309;315" dur="3.2s" repeatCount="indefinite"/>
  </text>
  <line x1="502" y1="311" x2="470" y2="342" stroke="#00FFB3" stroke-width="0.5" stroke-dasharray="3,2" opacity="0.4"/>

  <rect x="496" y="0" width="148" height="26" rx="4" fill="#001208" stroke="#00cc88" stroke-width="0.8">
    <animate attributeName="y" values="218;212;218" dur="2.9s" repeatCount="indefinite"/>
  </rect>
  <text x="570" y="0" font-family="monospace" font-size="9" fill="#00cc88" text-anchor="middle">
    loose coupling
    <animate attributeName="y" values="235;229;235" dur="2.9s" repeatCount="indefinite"/>
  </text>
  <line x1="496" y1="231" x2="455" y2="258" stroke="#00cc88" stroke-width="0.5" stroke-dasharray="3,2" opacity="0.4"/>

  <rect x="504" y="0" width="136" height="26" rx="4" fill="#000d08" stroke="#69F0AE" stroke-width="0.8">
    <animate attributeName="y" values="138;132;138" dur="3.5s" repeatCount="indefinite"/>
  </rect>
  <text x="572" y="0" font-family="monospace" font-size="9" fill="#69F0AE" text-anchor="middle">
    high cohesion
    <animate attributeName="y" values="155;149;155" dur="3.5s" repeatCount="indefinite"/>
  </text>
  <line x1="504" y1="151" x2="435" y2="174" stroke="#69F0AE" stroke-width="0.5" stroke-dasharray="3,2" opacity="0.4"/>

  <!-- terminal bar -->
  <rect x="0" y="406" width="680" height="34" fill="#060c06"/>
  <text x="20" y="428" font-family="monospace" font-size="10" fill="#00FFB3">$ engineer --mode=good_practices --output=scalable_systems</text>
  <text x="648" y="428" font-family="monospace" font-size="12" fill="#00FFB3">_<animate attributeName="opacity" values="1;1;0;0" dur="1s" repeatCount="indefinite"/></text>
</svg>
